<svg width="24" height="24" viewBox="0 0 24 24" fill="none" xmlns="http://www.w3.org/2000/svg">
<path d="M8.75 12C8.75 10.2051 10.2051 8.75 12 8.75C13.7949 8.75 15.25 10.2051 15.25 12C15.25 13.7949 13.7949 15.25 12 15.25C10.2051 15.25 8.75 13.7949 8.75 12Z" fill="#13193A"/>
<path fill-rule="evenodd" clip-rule="evenodd" d="M6.5 1.25C3.60051 1.25 1.25 3.60051 1.25 6.5V17.5C1.25 20.3995 3.60051 22.75 6.5 22.75H17.5C20.3995 22.75 22.75 20.3995 22.75 17.5V6.5C22.75 3.60051 20.3995 1.25 17.5 1.25H6.5ZM17.25 6C17.25 5.58579 17.5858 5.25 18 5.25H18.01C18.4242 5.25 18.76 5.58579 18.76 6C18.76 6.41421 18.4242 6.75 18.01 6.75H18C17.5858 6.75 17.25 6.41421 17.25 6ZM12 7.25C9.37665 7.25 7.25 9.37665 7.25 12C7.25 14.6234 9.37665 16.75 12 16.75C14.6234 16.75 16.75 14.6234 16.75 12C16.75 9.37665 14.6234 7.25 12 7.25Z" fill="#13193A"/>
</svg>
