<svg width="24" height="24" viewBox="0 0 24 24" fill="none" xmlns="http://www.w3.org/2000/svg">
<path d="M4.5 1.75C2.98122 1.75 1.75 2.98122 1.75 4.5C1.75 6.01878 2.98122 7.25 4.5 7.25C6.01878 7.25 7.25 6.01878 7.25 4.5C7.25 2.98122 6.01878 1.75 4.5 1.75Z" fill="#13193A"/>
<path d="M3 8.75C2.30964 8.75 1.75 9.30964 1.75 10V21C1.75 21.6904 2.30964 22.25 3 22.25H6C6.69036 22.25 7.25 21.6904 7.25 21V10C7.25 9.30964 6.69036 8.75 6 8.75H3Z" fill="#13193A"/>
<path d="M15.5 8.75C11.7721 8.75 8.75 11.7721 8.75 15.5V21.1364C8.75 21.7514 9.24859 22.25 9.86364 22.25H13.0789C13.7257 22.25 14.25 21.7257 14.25 21.0789V15.5C14.25 14.8096 14.8096 14.25 15.5 14.25C16.1904 14.25 16.75 14.8096 16.75 15.5V21.0789C16.75 21.7257 17.2743 22.25 17.9211 22.25H21.1364C21.7514 22.25 22.25 21.7514 22.25 21.1364V15.5C22.25 11.7721 19.2279 8.75 15.5 8.75Z" fill="#13193A"/>
</svg>
